<svg id="svg" xmlns="http://www.w3.org/2000/svg" xmlns:xlink="http://www.w3.org/1999/xlink" width="400" height="400" viewBox="0, 0, 400,400"><g id="svgg"><path id="path0" d="M189.444 58.373 C 168.614 60.416,152.944 64.753,136.481 73.034 C 65.551 108.710,37.596 194.775,74.012 265.355 C 104.067 323.608,170.637 353.640,234.520 337.765 C 291.964 323.491,332.791 276.854,341.182 215.926 C 341.838 211.161,341.834 188.902,341.176 184.074 C 332.060 117.173,284.109 68.395,218.444 59.226 C 213.030 58.470,194.125 57.914,189.444 58.373 M215.926 62.766 C 327.893 76.646,377.622 209.949,301.856 293.111 C 230.562 371.366,100.947 342.913,68.346 241.852 C 41.697 159.242,99.742 70.762,185.926 62.622 C 188.269 62.401,190.769 62.152,191.481 62.070 C 194.361 61.736,211.566 62.226,215.926 62.766 M155.556 131.505 L 155.556 161.531 151.852 173.704 C 147.834 186.910,147.399 189.342,148.981 189.767 C 150.516 190.178,250.731 190.031,251.506 189.617 C 252.621 189.020,252.470 188.311,248.336 174.698 L 244.449 161.902 244.354 131.784 L 244.259 101.667 199.907 101.573 L 155.556 101.478 155.556 131.505 M241.481 132.407 L 241.481 160.741 200.000 160.741 L 158.519 160.741 158.519 132.407 L 158.519 104.074 200.000 104.074 L 241.481 104.074 241.481 132.407 M162.099 107.654 C 161.619 108.135,161.812 154.627,162.296 155.111 C 162.941 155.756,237.059 155.756,237.704 155.111 C 238.346 154.469,238.346 108.494,237.704 107.852 C 237.219 107.367,162.581 107.172,162.099 107.654 M235.185 131.667 L 235.185 152.593 200.185 152.593 L 165.185 152.593 165.185 131.667 L 165.185 110.741 200.185 110.741 L 235.185 110.741 235.185 131.667 M168.241 113.579 C 167.364 113.932,167.602 126.917,168.494 127.394 C 169.554 127.962,184.538 127.907,185.111 127.333 C 185.679 126.766,185.732 115.097,185.172 114.050 C 184.800 113.355,169.828 112.938,168.241 113.579 M190.815 113.778 C 190.063 114.529,190.192 136.806,190.952 137.566 C 191.575 138.189,204.902 138.457,205.768 137.865 C 206.437 137.407,206.684 136.281,206.282 135.529 C 205.928 134.867,205.442 134.815,199.617 134.815 L 193.333 134.815 193.333 125.556 L 193.333 116.296 211.111 116.296 L 228.889 116.296 228.889 125.556 L 228.889 134.815 226.141 134.815 C 222.849 134.815,222.220 135.014,222.228 136.058 C 222.240 137.702,222.576 137.808,227.437 137.697 L 232.037 137.593 232.135 125.970 C 232.205 117.703,232.111 114.202,231.812 113.841 C 231.232 113.142,191.511 113.081,190.815 113.778 M182.222 120.370 L 182.222 124.444 176.481 124.444 L 170.741 124.444 170.741 120.370 L 170.741 116.296 176.481 116.296 L 182.222 116.296 182.222 120.370 M207.988 126.997 C 207.578 127.661,206.720 142.001,207.054 142.624 C 207.640 143.719,208.536 143.740,210.442 142.703 C 211.993 141.859,212.341 141.784,212.600 142.237 C 213.812 144.358,217.509 148.889,218.029 148.889 C 218.375 148.889,220.043 148.016,221.736 146.950 C 225.674 144.470,225.703 144.158,222.437 139.474 L 220.060 136.064 221.541 135.162 C 225.192 132.936,224.506 132.135,216.364 129.119 C 209.858 126.710,208.395 126.339,207.988 126.997 M214.722 131.873 C 218.467 133.244,218.582 133.346,217.222 134.074 C 215.737 134.869,216.057 136.050,218.746 139.715 C 221.350 143.263,221.334 143.107,219.215 144.258 C 218.248 144.782,218.235 144.772,215.778 141.281 C 213.233 137.666,212.082 136.955,210.821 138.216 C 210.038 138.999,209.921 138.263,210.194 134.262 C 210.375 131.601,210.597 130.373,210.879 130.472 C 211.109 130.552,212.838 131.182,214.722 131.873 M168.222 134.519 C 167.978 134.763,167.778 135.313,167.778 135.741 C 167.778 137.315,168.269 137.407,176.667 137.407 C 182.395 137.407,184.793 137.281,185.111 136.963 C 185.792 136.283,185.640 134.886,184.839 134.457 C 183.779 133.890,168.796 133.945,168.222 134.519 M168.222 143.407 C 167.978 143.652,167.778 144.202,167.778 144.630 C 167.778 146.204,168.269 146.296,176.667 146.296 C 182.395 146.296,184.793 146.170,185.111 145.852 C 185.792 145.171,185.640 143.775,184.839 143.346 C 183.779 142.779,168.796 142.834,168.222 143.407 M193.107 157.195 C 192.996 157.486,192.959 158.111,193.026 158.584 L 193.148 159.444 200.083 159.545 L 207.019 159.646 207.254 158.707 C 207.728 156.820,207.179 156.667,199.943 156.667 C 194.539 156.667,193.273 156.765,193.107 157.195 M243.117 168.241 C 245.782 176.841,248.519 186.006,248.519 186.331 C 248.519 186.530,228.791 186.667,200.000 186.667 C 171.025 186.667,151.481 186.531,151.481 186.329 C 151.481 186.016,156.349 169.811,157.638 165.833 L 158.208 164.074 200.017 164.074 L 241.826 164.074 243.117 168.241 M189.018 173.241 C 188.702 174.005,187.961 175.772,187.370 177.168 C 185.295 182.075,184.683 181.852,200.220 181.852 L 212.979 181.852 213.360 181.015 C 213.728 180.208,211.434 173.711,210.289 172.315 C 210.002 171.965,207.428 171.852,199.751 171.852 L 189.592 171.852 189.018 173.241 M208.876 176.539 C 209.851 178.742,210.782 178.546,199.896 178.432 L 190.423 178.333 191.185 176.574 L 191.946 174.815 200.030 174.815 L 208.113 174.815 208.876 176.539 M135.455 229.098 C 124.793 231.682,118.866 243.683,121.645 257.062 C 123.981 268.306,134.965 274.011,148.333 270.925 C 152.726 269.911,154.028 269.820,154.292 270.508 C 155.426 273.464,156.296 268.716,156.296 259.571 C 156.296 255.778,155.170 255.915,153.266 259.940 C 149.267 268.391,143.723 271.683,139.000 268.411 C 131.791 263.415,131.709 236.009,138.889 231.389 C 143.543 228.394,148.508 231.386,152.819 239.785 C 154.988 244.008,156.138 243.913,155.798 239.537 C 155.667 237.856,155.559 234.851,155.558 232.859 C 155.555 229.056,154.989 227.878,153.887 229.384 C 153.300 230.187,152.229 230.161,148.704 229.259 C 145.246 228.375,138.765 228.296,135.455 229.098 M258.684 229.066 C 252.440 231.039,249.466 235.161,249.460 241.852 C 249.453 249.678,252.461 252.824,262.925 255.932 C 272.095 258.657,275.292 263.065,271.204 267.351 C 266.484 272.299,258.502 269.142,252.522 259.962 C 249.088 254.690,248.641 255.956,249.566 268.333 C 249.839 271.997,250.265 272.491,251.692 270.802 L 252.458 269.895 257.063 270.676 C 263.018 271.686,264.482 271.794,267.453 271.437 C 274.808 270.555,279.183 265.772,279.547 258.215 C 279.960 249.631,276.967 246.327,265.741 242.981 C 257.025 240.383,254.569 237.971,256.499 233.905 C 259.563 227.448,268.112 229.856,273.954 238.820 C 276.927 243.382,277.212 243.119,277.093 235.924 C 276.975 228.772,276.652 227.676,275.185 229.444 C 274.575 230.180,273.651 230.146,270.185 229.259 C 266.841 228.404,261.085 228.307,258.684 229.066 M160.370 229.771 C 160.370 230.688,160.471 230.741,162.222 230.741 L 164.074 230.741 164.074 250.000 L 164.074 269.259 162.222 269.259 C 160.494 269.259,160.370 269.321,160.370 270.185 L 160.370 271.111 172.037 271.111 L 183.704 271.111 183.704 270.185 L 183.704 269.259 180.000 269.259 L 176.296 269.259 176.296 261.722 L 176.296 254.185 180.278 253.955 C 188.396 253.486,192.826 251.289,194.935 246.689 C 195.859 244.672,196.022 237.449,195.167 236.389 C 195.084 236.286,194.932 235.718,194.861 235.247 C 194.836 235.077,194.190 234.279,193.426 233.473 C 189.852 229.701,187.568 229.216,172.315 228.983 L 160.370 228.801 160.370 229.771 M198.402 229.129 C 197.539 229.991,198.196 230.741,199.815 230.741 L 201.481 230.741 201.481 250.000 L 201.481 269.259 199.815 269.259 C 198.284 269.259,198.148 269.335,198.148 270.185 L 198.148 271.111 202.593 271.111 L 207.037 271.111 207.037 270.185 C 207.037 269.335,206.901 269.259,205.370 269.259 L 203.704 269.259 203.729 251.944 L 203.754 234.630 205.753 241.852 C 206.852 245.824,208.439 251.741,209.278 255.000 C 210.117 258.259,211.298 262.843,211.902 265.185 C 212.506 267.528,213.102 269.694,213.226 270.000 C 213.350 270.306,213.424 270.681,213.392 270.833 C 213.360 270.986,215.133 271.111,217.333 271.111 L 221.333 271.111 222.323 266.944 C 222.867 264.653,224.653 257.028,226.292 250.000 C 227.931 242.972,229.339 237.056,229.422 236.852 C 229.504 236.648,229.584 243.856,229.600 252.870 L 229.630 269.259 228.148 269.259 C 226.815 269.259,226.667 269.352,226.667 270.185 L 226.667 271.111 235.926 271.111 L 245.185 271.111 245.185 270.185 C 245.185 269.335,245.049 269.259,243.519 269.259 L 241.852 269.259 241.852 250.000 L 241.852 230.741 243.519 230.741 C 245.049 230.741,245.185 230.665,245.185 229.815 L 245.185 228.889 237.062 228.889 C 228.165 228.889,228.838 228.717,228.364 231.111 C 228.172 232.084,227.208 236.203,225.722 242.407 C 225.234 244.444,224.755 246.528,224.658 247.037 C 224.482 247.965,222.794 255.201,222.300 257.146 C 222.097 257.945,221.182 254.856,218.294 243.628 L 214.552 229.074 206.604 228.974 C 202.233 228.920,198.542 228.989,198.402 229.129 M180.640 231.699 C 182.508 232.898,182.778 234.111,182.778 241.296 C 182.778 250.105,181.739 252.222,177.419 252.222 L 176.296 252.222 176.296 241.439 L 176.296 230.657 178.056 230.913 C 179.023 231.054,180.186 231.407,180.640 231.699 " stroke="none" fill="#000000" fill-rule="evenodd"></path></g></svg>