<svg id="svg" xmlns="http://www.w3.org/2000/svg" xmlns:xlink="http://www.w3.org/1999/xlink" width="400" height="400" viewBox="0, 0, 400,400"><g id="svgg"><path id="path0" d="M80.218 81.140 L 79.259 82.279 79.259 163.906 L 79.259 245.534 73.697 263.971 C 70.638 274.111,67.901 283.157,67.614 284.074 C 67.328 284.991,65.409 291.324,63.350 298.148 C 61.292 304.972,59.279 311.625,58.878 312.933 C 57.666 316.882,57.957 318.914,59.883 319.940 C 61.237 320.661,338.947 320.551,340.344 319.829 C 342.526 318.700,342.427 317.779,338.859 305.995 C 337.213 300.559,334.779 292.528,333.450 288.148 C 332.121 283.769,329.125 273.852,326.792 266.111 C 324.459 258.370,322.143 250.737,321.645 249.148 L 320.741 246.258 320.737 165.259 C 320.732 81.392,320.741 82.019,319.570 80.762 L 318.860 80.000 200.018 80.000 L 81.177 80.000 80.218 81.140 M313.333 164.815 L 313.333 242.593 287.576 242.593 L 261.819 242.593 267.044 234.831 L 272.268 227.069 286.720 226.961 L 301.173 226.852 302.253 225.642 L 303.333 224.433 303.333 162.390 C 303.333 93.685,303.501 98.274,300.951 97.209 C 299.331 96.532,101.979 96.378,99.554 97.052 C 96.365 97.937,96.666 91.200,96.672 161.624 C 96.676 210.664,96.776 224.086,97.140 224.815 C 98.206 226.948,98.876 227.036,114.076 227.036 L 127.966 227.037 133.057 234.608 C 135.857 238.772,138.148 242.272,138.148 242.386 C 138.148 242.499,126.481 242.593,112.222 242.593 L 86.296 242.593 86.296 164.815 L 86.296 87.037 199.815 87.037 L 313.333 87.037 313.333 164.815 M295.926 162.037 L 295.926 219.630 200.000 219.630 L 104.074 219.630 104.074 162.037 L 104.074 104.444 200.000 104.444 L 295.926 104.444 295.926 162.037 M114.427 113.808 C 112.561 115.279,112.593 114.967,112.593 132.102 C 112.593 143.727,112.714 148.379,113.035 149.084 C 113.968 151.132,113.720 151.111,136.677 151.111 L 157.835 151.111 158.917 150.028 L 160.000 148.946 160.000 132.770 C 160.000 115.173,159.946 114.674,157.928 113.755 C 156.560 113.132,115.221 113.182,114.427 113.808 M176.038 113.990 C 175.590 114.342,175.048 115.099,174.834 115.672 C 174.247 117.245,174.297 175.938,174.887 177.233 C 175.811 179.262,175.785 179.259,196.064 179.259 L 214.758 179.259 215.898 178.300 C 217.300 177.120,217.501 174.515,216.309 172.963 L 215.598 172.037 198.632 171.852 L 181.667 171.667 181.572 146.019 L 181.476 120.370 230.553 120.370 L 279.630 120.370 279.630 146.121 L 279.630 171.873 271.689 171.837 C 266.664 171.815,263.475 171.948,263.004 172.200 C 260.399 173.594,260.464 177.498,263.110 178.504 C 264.487 179.027,283.594 179.018,285.100 178.493 C 287.515 177.651,287.435 178.833,287.323 145.667 C 287.214 113.354,287.297 114.649,285.280 113.730 C 283.588 112.959,177.027 113.212,176.038 113.990 M152.505 131.944 L 152.407 143.519 136.019 143.615 L 119.630 143.711 119.630 132.041 L 119.630 120.370 136.116 120.370 L 152.603 120.370 152.505 131.944 M223.825 149.802 C 221.868 150.649,221.819 150.945,220.515 169.613 C 218.863 193.252,218.870 192.101,220.375 193.445 C 222.257 195.127,223.723 194.778,228.904 191.414 L 233.172 188.643 239.642 197.873 C 248.918 211.106,247.560 210.705,258.715 203.507 C 269.953 196.255,269.803 197.516,260.931 184.815 C 260.290 183.898,258.631 181.481,257.243 179.444 C 255.855 177.407,254.474 175.458,254.173 175.113 C 253.673 174.539,254.025 174.222,258.288 171.409 C 263.623 167.889,264.167 167.160,263.305 164.687 C 262.721 163.010,262.617 162.959,252.037 159.095 C 249.593 158.202,244.843 156.450,241.481 155.200 C 233.532 152.246,226.672 149.762,225.741 149.501 C 225.333 149.388,224.471 149.523,223.825 149.802 M241.578 162.979 C 253.184 167.351,252.503 166.665,247.993 169.444 C 243.304 172.334,243.489 173.064,251.812 184.573 C 258.265 193.496,258.883 194.444,258.246 194.444 C 257.910 194.444,255.009 196.253,251.544 198.622 C 250.662 199.225,249.812 199.573,249.655 199.396 C 249.498 199.219,248.139 197.324,246.634 195.185 C 245.130 193.046,243.196 190.296,242.336 189.074 C 241.477 187.852,239.813 185.461,238.640 183.762 C 235.177 178.743,233.887 178.430,229.365 181.512 C 227.846 182.547,226.543 183.333,226.469 183.259 C 226.395 183.185,226.696 177.436,227.138 170.484 L 227.941 157.843 229.619 158.474 C 230.541 158.821,235.923 160.848,241.578 162.979 M114.221 170.676 C 112.146 172.411,112.060 175.411,114.042 176.933 C 114.488 177.275,119.861 177.387,136.356 177.396 L 158.082 177.407 159.041 176.268 C 160.517 174.514,160.241 172.162,158.383 170.656 C 157.156 169.663,115.411 169.681,114.221 170.676 M115.290 194.328 C 112.191 194.950,111.694 200.094,114.615 201.314 C 116.244 201.995,155.779 202.123,157.698 201.454 C 160.162 200.595,160.782 197.554,158.919 195.469 L 157.839 194.259 136.975 194.211 C 125.500 194.185,115.742 194.237,115.290 194.328 M164.566 226.802 C 167.369 227.972,169.943 232.139,169.544 234.857 C 169.456 235.463,169.489 236.024,169.620 236.105 C 169.750 236.185,169.786 236.851,169.701 237.585 L 169.545 238.919 166.717 238.811 L 163.889 238.704 163.626 236.296 C 163.210 232.479,160.249 230.829,157.946 233.131 C 156.990 234.088,156.991 234.076,156.956 240.370 C 156.948 241.898,156.806 243.506,156.642 243.943 C 156.478 244.381,156.458 244.853,156.598 244.993 C 156.737 245.133,156.852 249.803,156.852 255.372 L 156.852 265.496 157.750 266.452 C 160.297 269.163,163.836 266.966,163.762 262.720 C 163.742 261.566,163.920 260.652,164.212 260.410 C 164.728 259.981,168.827 260.059,169.560 260.512 C 170.094 260.842,170.151 264.307,169.628 264.630 C 169.424 264.757,169.353 265.243,169.470 265.711 C 169.587 266.179,169.442 267.139,169.147 267.845 C 166.024 275.321,154.458 275.311,151.191 267.829 C 150.559 266.381,150.202 247.280,150.715 242.310 C 150.846 241.035,150.828 239.865,150.674 239.711 C 150.215 239.252,150.800 232.957,151.353 232.403 C 151.628 232.129,151.852 231.643,151.852 231.323 C 151.852 231.003,152.046 230.741,152.284 230.741 C 152.522 230.741,152.611 230.635,152.482 230.507 C 151.704 229.729,154.778 227.143,157.341 226.421 C 159.332 225.859,162.741 226.039,164.566 226.802 M244.781 227.252 C 247.550 228.360,249.414 231.185,249.856 234.943 C 250.285 238.596,250.107 238.816,246.762 238.755 L 243.889 238.704 243.702 236.355 C 243.326 231.632,237.728 230.833,236.874 235.380 C 236.408 237.867,237.420 240.046,242.709 247.945 C 248.765 256.990,250.358 261.562,249.272 266.789 C 248.931 268.435,248.626 269.024,247.961 269.327 C 247.485 269.544,247.175 269.928,247.271 270.179 C 247.969 271.997,243.764 273.914,239.715 273.624 C 234.185 273.228,231.129 269.896,230.549 263.630 C 230.273 260.636,230.444 260.438,233.544 260.149 C 236.719 259.854,237.031 260.129,237.383 263.532 C 237.773 267.296,240.410 268.982,242.755 266.966 C 245.194 264.868,243.778 260.578,237.589 251.319 C 233.927 245.840,232.978 244.083,231.888 240.764 C 228.724 231.126,235.836 223.673,244.781 227.252 M204.823 227.041 C 205.741 227.533,205.813 227.822,209.141 244.389 C 210.976 253.525,212.090 258.331,212.264 257.860 C 212.413 257.457,212.809 255.232,213.143 252.916 C 214.725 241.947,217.141 228.249,217.626 227.500 C 218.225 226.574,222.630 226.277,224.610 227.030 L 225.565 227.393 225.541 234.344 C 225.528 238.168,225.700 248.293,225.923 256.845 C 226.386 274.577,226.599 273.333,223.104 273.333 C 220.234 273.333,218.836 270.275,220.383 267.383 C 220.645 266.893,220.646 266.667,220.386 266.667 C 220.139 266.667,220.036 264.935,220.095 261.759 C 220.219 255.032,219.866 241.385,219.588 242.153 C 219.464 242.496,219.162 244.194,218.918 245.926 C 218.048 252.097,215.202 267.795,214.826 268.497 C 214.616 268.889,214.444 269.856,214.444 270.646 C 214.444 272.782,213.823 273.407,211.838 273.266 C 210.038 273.138,209.492 272.273,209.066 268.883 C 208.813 266.871,205.263 248.433,204.467 245.000 L 203.780 242.037 203.748 257.203 C 203.711 274.396,203.921 273.322,200.576 273.410 C 197.827 273.482,197.430 273.013,197.591 269.882 C 197.830 265.235,197.816 253.903,197.556 240.965 C 197.300 228.280,197.319 227.647,197.974 227.168 C 198.790 226.572,203.773 226.479,204.823 227.041 M185.180 227.420 C 191.700 228.266,193.528 231.065,193.500 240.161 C 193.468 250.566,191.398 253.555,183.889 254.043 L 180.556 254.259 180.589 262.130 C 180.608 266.458,180.524 270.000,180.404 270.000 C 180.284 270.000,180.185 270.625,180.185 271.389 C 180.185 272.153,180.019 272.900,179.815 273.050 C 179.299 273.429,175.110 273.392,174.497 273.003 C 173.750 272.530,174.013 228.559,174.768 227.649 C 175.366 226.929,180.519 226.815,185.180 227.420 M180.967 233.267 C 180.863 233.435,180.750 236.810,180.715 240.768 L 180.651 247.963 182.911 247.960 C 185.844 247.955,186.541 247.302,187.081 244.055 C 187.895 239.158,186.900 233.914,185.086 233.547 C 182.936 233.112,181.138 232.990,180.967 233.267 M142.176 251.389 C 141.709 252.153,141.196 252.833,141.034 252.901 C 140.873 252.969,140.741 253.261,140.741 253.549 C 140.741 253.838,140.574 254.074,140.370 254.074 C 140.167 254.074,140.000 254.324,140.000 254.630 C 140.000 254.935,139.833 255.185,139.630 255.185 C 139.426 255.185,139.259 255.435,139.259 255.741 C 139.259 256.046,139.093 256.296,138.889 256.296 C 138.685 256.296,138.519 256.532,138.519 256.821 C 138.519 257.110,138.379 257.401,138.209 257.469 C 137.781 257.639,131.852 266.554,131.852 267.026 C 131.852 267.236,131.685 267.407,131.481 267.407 C 131.278 267.407,131.111 267.644,131.111 267.932 C 131.111 268.221,130.978 268.512,130.814 268.580 C 130.510 268.707,125.556 275.863,125.556 276.176 C 125.556 276.271,125.306 276.599,125.000 276.905 C 123.367 278.538,123.100 278.519,147.192 278.519 L 169.940 278.519 167.889 283.426 C 162.688 295.867,162.698 295.822,164.708 297.403 C 166.194 298.572,234.387 298.576,235.556 297.407 C 236.908 296.055,236.536 294.333,233.148 286.275 C 231.417 282.156,230.000 278.726,230.000 278.652 C 230.000 278.579,240.328 278.519,252.951 278.519 C 274.651 278.519,275.890 278.483,275.671 277.870 C 275.544 277.514,273.323 274.139,270.737 270.370 C 268.150 266.602,265.072 262.019,263.898 260.185 C 262.723 258.352,261.615 256.796,261.436 256.728 C 261.258 256.660,261.111 256.445,261.111 256.249 C 261.111 256.053,260.278 254.658,259.259 253.148 C 258.241 251.639,257.407 250.313,257.407 250.202 C 257.407 250.091,270.215 250.000,285.869 250.000 L 314.330 250.000 316.449 256.944 C 317.614 260.764,321.937 274.972,326.055 288.519 L 333.542 313.148 200.043 313.241 C 126.619 313.292,66.499 313.290,66.445 313.235 C 66.364 313.154,80.180 267.424,84.459 253.611 L 85.577 250.000 114.300 250.000 L 143.023 250.000 142.176 251.389 M224.931 285.278 L 227.356 290.926 200.100 291.021 C 185.109 291.073,172.784 291.055,172.710 290.981 C 172.636 290.907,173.426 288.865,174.465 286.442 C 175.505 284.019,176.584 281.495,176.863 280.833 L 177.370 279.630 199.938 279.630 L 222.507 279.630 224.931 285.278 " stroke="none" fill="#000000" fill-rule="evenodd"></path></g></svg>